<svg xmlns="http://www.w3.org/2000/svg" viewBox="0 0 547.54 108.54"><defs><style>.cls-1{fill:#fff;}</style></defs><title>ideyvex2</title><g id="Layer_2" data-name="Layer 2"><g id="Layer_1-2" data-name="Layer 1"><path class="cls-1" d="M96.3,41.16H29.37c-1.83,0-3.32-2-3.32-4.46s1.49-4.47,3.32-4.47H96.3c1.83,0,3.32,2,3.32,4.47S98.13,41.16,96.3,41.16Z"/><path class="cls-1" d="M96.3,64.16H29.37c-1.83,0-3.32-2-3.32-4.46s1.49-4.46,3.32-4.46H96.3c1.83,0,3.32,2,3.32,4.46S98.13,64.16,96.3,64.16Z"/><path class="cls-1" d="M62.21,108.54h0a4,4,0,0,1-3.45-2l-4.68-8.11a12.27,12.27,0,0,0-10.59-6.11H20.2A20.23,20.23,0,0,1,0,72.12V21.74A20.22,20.22,0,0,1,20.2,1.54h84a20.23,20.23,0,0,1,20.21,20.2V72.12a20.24,20.24,0,0,1-20.21,20.21H80.94a12.27,12.27,0,0,0-10.6,6.11l-4.68,8.11A4,4,0,0,1,62.21,108.54Zm-42-99A12.25,12.25,0,0,0,8,21.74V72.12A12.24,12.24,0,0,0,20.2,84.35H43.49A20.26,20.26,0,0,1,61,94.45l1.23,2.13,1.23-2.13a20.26,20.26,0,0,1,17.5-10.1h23.28a12.24,12.24,0,0,0,12.23-12.23V21.74A12.24,12.24,0,0,0,104.22,9.51Z"/><path class="cls-1" d="M155.46,10.15C155.46,4.38,159.63,0,166.15,0c6,0,10.47,4.17,10.47,10.15,0,5.77-4.27,10.15-10.47,10.15S155.46,16.24,155.46,10.15ZM157,81.64V27h18.16v54.6Z"/><path class="cls-1" d="M224.6,3.1l18.27-1.6V81.64H228.13L226,73.09c-4.17,6.52-10,10-17.63,10-13.25,0-22.65-10.57-22.65-28,0-17.85,8.54-29.49,23.82-29.49,6.2,0,11.22,1.81,15.07,5.34Zm0,59.73V46.48c-1.92-3.84-5.34-6.73-9.83-6.73-6.52,0-10.68,5.45-10.68,14.32s3.84,15,11.11,15A10.73,10.73,0,0,0,224.6,62.83Z"/><path class="cls-1" d="M305.6,58.56H271.2c1.17,7.37,6.41,11.11,15.06,11.11a27,27,0,0,0,14.43-4.49l3,13.79c-4.91,2.88-12.93,4.16-19.55,4.16-20.31,0-30.57-10.89-30.57-28.85,0-17,10.48-28.85,27.36-28.85C299.62,25.43,306,35.37,306,51,306,53.64,305.82,56.31,305.6,58.56Zm-34.51-9.41h18.7c-.22-6.41-2-11.54-8.55-11.54C275,37.61,271.84,43.28,271.09,49.15Z"/><path class="cls-1" d="M349.63,27h18.92L349,78.54c-8,20.94-14.85,26.07-28.21,26.07a47.48,47.48,0,0,1-10.9-1.49l2-14.54a22.41,22.41,0,0,0,7.91,1.93c5,0,7.16-3.1,9-7.8l.75-2.25L309.13,27h19.56l10.58,36.33Z"/><path class="cls-1" d="M409.37,27h18.91l-20.73,54.6H389.49L369,27h19.55L399,63.79Z"/><path class="cls-1" d="M483.42,58.56H449c1.17,7.37,6.41,11.11,15.06,11.11a27,27,0,0,0,14.43-4.49l3,13.79c-4.91,2.88-12.93,4.16-19.55,4.16-20.31,0-30.56-10.89-30.56-28.85,0-17,10.47-28.85,27.35-28.85,18.7,0,25.11,9.94,25.11,25.54C483.85,53.64,483.64,56.31,483.42,58.56Zm-34.51-9.41h18.7c-.21-6.41-2-11.54-8.55-11.54C452.86,37.61,449.66,43.28,448.91,49.15Z"/><path class="cls-1" d="M547.54,81.64H527.13L516.45,65,506.19,81.64H486.85l19.23-28.1L488,27h20.2L517.94,43,528,27h18.48l-18.8,27.14Z"/></g></g></svg>